TITLE ""
FILE "1Q_t_0420-0428.mp3" MP3
  TRACK 01 AUDIO
    TITLE "1Q_t_0420-0428_01"
    INDEX 01 00:00:00
  TRACK 02 AUDIO
    TITLE "1Q_t_0420-0428_02"
    INDEX 01 00:01:33
  TRACK 03 AUDIO
    TITLE "1Q_t_0420-0428_03"
    INDEX 01 00:01:49
  TRACK 04 AUDIO
    TITLE "1Q_t_0420-0428_04"
    INDEX 01 00:05:11
  TRACK 05 AUDIO
    TITLE "1Q_t_0420-0428_05"
    INDEX 01 00:05:25
  TRACK 06 AUDIO
    TITLE "1Q_t_0420-0428_06"
    INDEX 01 00:09:74
  TRACK 07 AUDIO
    TITLE "1Q_t_0420-0428_07"
    INDEX 01 00:10:52
  TRACK 08 AUDIO
    TITLE "1Q_t_0420-0428_08"
    INDEX 01 00:11:55
  TRACK 09 AUDIO
    TITLE "1Q_t_0420-0428_09"
    INDEX 01 00:12:31
  TRACK 10 AUDIO
    TITLE "1Q_t_0420-0428_10"
    INDEX 01 00:13:44
  TRACK 11 AUDIO
    TITLE "1Q_t_0420-0428_11"
    INDEX 01 00:13:60
  TRACK 12 AUDIO
    TITLE "1Q_t_0420-0428_12"
    INDEX 01 00:15:12
  TRACK 13 AUDIO
    TITLE "1Q_t_0420-0428_13"
    INDEX 01 00:15:29
  TRACK 14 AUDIO
    TITLE "1Q_t_0420-0428_14"
    INDEX 01 00:19:47
  TRACK 15 AUDIO
    TITLE "1Q_t_0420-0428_15"
    INDEX 01 00:20:25
  TRACK 16 AUDIO
    TITLE "1Q_t_0420-0428_16"
    INDEX 01 00:21:18
  TRACK 17 AUDIO
    TITLE "1Q_t_0420-0428_17"
    INDEX 01 00:21:34
  TRACK 18 AUDIO
    TITLE "1Q_t_0420-0428_18"
    INDEX 01 00:22:41
  TRACK 19 AUDIO
    TITLE "1Q_t_0420-0428_19"
    INDEX 01 00:22:57
  TRACK 20 AUDIO
    TITLE "1Q_t_0420-0428_20"
    INDEX 01 00:27:01
  TRACK 21 AUDIO
    TITLE "1Q_t_0420-0428_21"
    INDEX 01 00:27:54
  TRACK 22 AUDIO
    TITLE "1Q_t_0420-0428_22"
    INDEX 01 00:28:73
  TRACK 23 AUDIO
    TITLE "1Q_t_0420-0428_23"
    INDEX 01 00:29:14
  TRACK 24 AUDIO
    TITLE "1Q_t_0420-0428_24"
    INDEX 01 00:31:46
  TRACK 25 AUDIO
    TITLE "1Q_t_0420-0428_25"
    INDEX 01 00:31:62
  TRACK 26 AUDIO
    TITLE "1Q_t_0420-0428_26"
    INDEX 01 00:36:65
  TRACK 27 AUDIO
    TITLE "1Q_t_0420-0428_27"
    INDEX 01 00:37:45
  TRACK 28 AUDIO
    TITLE "1Q_t_0420-0428_28"
    INDEX 01 00:38:52
  TRACK 29 AUDIO
    TITLE "1Q_t_0420-0428_29"
    INDEX 01 00:38:68
  TRACK 30 AUDIO
    TITLE "1Q_t_0420-0428_30"
    INDEX 01 00:40:18
  TRACK 31 AUDIO
    TITLE "1Q_t_0420-0428_31"
    INDEX 01 00:40:33
  TRACK 32 AUDIO
    TITLE "1Q_t_0420-0428_32"
    INDEX 01 00:46:16
  TRACK 33 AUDIO
    TITLE "1Q_t_0420-0428_33"
    INDEX 01 00:46:69
  TRACK 34 AUDIO
    TITLE "1Q_t_0420-0428_34"
    INDEX 01 00:48:17
  TRACK 35 AUDIO
    TITLE "1Q_t_0420-0428_35"
    INDEX 01 00:48:33
  TRACK 36 AUDIO
    TITLE "1Q_t_0420-0428_36"
    INDEX 01 00:49:60
  TRACK 37 AUDIO
    TITLE "1Q_t_0420-0428_37"
    INDEX 01 00:49:73
  TRACK 38 AUDIO
    TITLE "1Q_t_0420-0428_38"
    INDEX 01 00:54:53
  TRACK 39 AUDIO
    TITLE "1Q_t_0420-0428_39"
    INDEX 01 00:55:31
  TRACK 40 AUDIO
    TITLE "1Q_t_0420-0428_40"
    INDEX 01 00:56:34
  TRACK 41 AUDIO
    TITLE "1Q_t_0420-0428_41"
    INDEX 01 00:56:50
  TRACK 42 AUDIO
    TITLE "1Q_t_0420-0428_42"
    INDEX 01 01:00:52
  TRACK 43 AUDIO
    TITLE "1Q_t_0420-0428_43"
    INDEX 01 01:00:65
  TRACK 44 AUDIO
    TITLE "1Q_t_0420-0428_44"
    INDEX 01 01:05:63
  TRACK 45 AUDIO
    TITLE "1Q_t_0420-0428_45"
    INDEX 01 01:06:43
  TRACK 46 AUDIO
    TITLE "1Q_t_0420-0428_46"
    INDEX 01 01:07:54
  TRACK 47 AUDIO
    TITLE "1Q_t_0420-0428_47"
    INDEX 01 01:07:71
  TRACK 48 AUDIO
    TITLE "1Q_t_0420-0428_48"
    INDEX 01 01:10:05
  TRACK 49 AUDIO
    TITLE "1Q_t_0420-0428_49"
    INDEX 01 01:10:21
  TRACK 50 AUDIO
    TITLE "1Q_t_0420-0428_50"
    INDEX 01 01:15:20
  TRACK 51 AUDIO
    TITLE "1Q_t_0420-0428_51"
    INDEX 01 01:15:75
  TRACK 52 AUDIO
    TITLE "1Q_t_0420-0428_52"
    INDEX 01 01:17:07
  TRACK 53 AUDIO
    TITLE "1Q_t_0420-0428_53"
    INDEX 01 01:17:23
  TRACK 54 AUDIO
    TITLE "1Q_t_0420-0428_54"
    INDEX 01 01:18:34
  TRACK 55 AUDIO
    TITLE "1Q_t_0420-0428_55"
    INDEX 01 01:18:50
  TRACK 56 AUDIO
    TITLE "1Q_t_0420-0428_56"
    INDEX 01 01:23:57
